<svg preserveAspectRatio="xMidYMid meet" data-bbox="40.4 65 128.913 69" viewBox="40.4 65 128.913 69" height="200" width="200" xmlns="http://www.w3.org/2000/svg" data-type="color" role="presentation" aria-hidden="true" aria-label=""><defs><style>#comp-kkqs4edu svg [data-color="1"] {fill: #757575;}</style></defs>
    <g>
        <path d="M127.1 102.3c0-2.9.9-5.2 2.6-7.1 1.4-1.5 3-2.4 5-2.7-3.2-15.7-17.1-27.5-33.8-27.5-19.1 0-34.5 15.5-34.5 34.5 0 4 .7 7.9 2 11.4.7 0 1 .2 1 .4s-.2.4-.6.4h-.1c4.9 13 17.5 22.3 32.3 22.3 14.8 0 27.4-9.3 32.3-22.4-1.3-.5-2.4-1.2-3.4-2.3-1.9-1.9-2.8-4.2-2.8-7zm-39.2 8.1c-1.2 1.1-2.7 1.7-4.4 1.7-1.6 0-2.8-.4-3.6-1.2-.5-.5-.7-1.8-.7-4V94.1c0-.3-.2-.4-.5-.5h-1.6c-.6 0-.9-.1-.9-.3 0-.2.2-.3.5-.3 2.2-.2 4-1.3 5.2-3.3.2-.3.4-.4.6-.4.2 0 .3.1.3.3v.9c0 1.2.1 2 .2 2.3.3.1.7.1 1.3.1 1.6 0 2.6-.1 3.1-.2h.3c.2 0 .3.1.3.4 0 .4-1.2.6-3.5.6h-1.8v7.9c0 4 .1 6.5.3 7.5.2 1 .9 1.5 2 1.5.9 0 2-.5 3.2-1.6.1-.1.2-.2.4-.2s.3.1.3.2c0 .3-.3.8-1 1.4zm28.5 1.3h-7.8c-.4 0-.6-.1-.6-.3 0-.2.5-.3 1.6-.3.7 0 1-.1 1.1-.2s.2-.7.2-1.6v-8.7c0-2.6-.1-4.2-.3-4.8-.5-1.3-1.6-2-3.2-2-1.4 0-2.5.6-3.3 1.8-.3.4-.4 1.3-.4 2.7v12.2c0 .3.1.5.3.5.2 0 .8.1 1.8.1.3 0 .5.1.5.3 0 .2-.1.3-.4.3h-8.2c-.3 0-.5-.1-.5-.3 0-.2.2-.3.5-.3h1.2c.7 0 1-.2 1-.6V91.2c0-4.6-.1-7.1-.2-7.4-.2-.3-.9-.4-2.1-.5-.7 0-1-.1-1-.3 0-.2.1-.3.2-.3s.6-.1 1.5-.1c1.5 0 2.9-.4 4.2-1 .1-.1.3-.1.6-.2.2.3.3 1.4.3 3.3v10.5c1.3-1.8 3-2.7 5.2-2.7 2.3 0 3.9.6 4.9 1.9.5.6.8 1.5.9 2.7.1.4.1 1.4.1 2.9v10.8c0 .3.8.4 2.2.4.3.1.4.2.4.3 0 .1-.2.2-.7.2z" fill="#757575" data-color="1"></path>
        <path d="M132.4 95.5c-.9 1.6-1.4 3.9-1.4 6.9 0 2.9.5 5.1 1.4 6.8.3.5.7 1 1.1 1.4 1.2-3.4 1.8-7.1 1.8-11 0-2.1-.2-4.2-.6-6.2-.9.2-1.7.9-2.3 2.1z" fill="#757575" data-color="1"></path>
        <path d="M68.1 110.9c-1.1 0-1.9-.1-2.2-.3-.4-.2-.7-.6-.9-1.2-4.1-11.2-6.7-18.1-7.7-20.9-1.3-3.6-2.2-5.9-2.5-7-.1-.2-.1-.3-.2-.3s-.3.2-.3.5l-.2.8c-.2.4-.3.8-.4 1.1-2.3 6.4-5.3 14.9-9 25.5-.2.7-.5 1.2-.9 1.4-.4.2-1.1.4-2 .4-.9 0-1.4.2-1.4.4 0 .3.2.4.6.4.1 0 .3 0 .6-.1.4-.1.9-.1 1.3-.1h1.3c1.7.1 3.3.2 4.6.2.7 0 1.1-.1 1.1-.4 0-.3-.4-.4-1.2-.4-1.3-.1-2.1-.1-2.1-.2-.3-.1-.5-.3-.5-.7 0-.7.9-3.3 2.6-7.9h9.2c1 3 1.6 5 1.9 5.9l.2.6.4 1.1c.1.2.1.3.1.3 0 .5-1.3.7-3.8.8-.8 0-1.2.2-1.2.5s.3.4.9.4h.6l5.5-.2 5.5.2h.7c-.1-.3-.2-.5-.3-.8h-.3zM48.9 101c1.7-5.1 3.1-9.2 4.4-12.4l2.1 6c1.1 3 1.9 5.1 2.3 6.4h-8.8z" fill="#757575" data-color="1"></path>
        <path d="M69.3 111.3c0-.2-.3-.4-1-.4.1.3.2.5.3.8h.1c.3 0 .6-.1.6-.4z" fill="#757575" data-color="1"></path>
        <path d="M136 92.4c-.5 0-.9 0-1.4.1.1.3.1.5.1.8.4-.1.9-.2 1.3-.2 1.7 0 2.9.6 3.6 1.9 1 1.7 1.5 4.2 1.5 7.3 0 3.3-.6 5.8-1.8 7.7-.6 1-1.6 1.5-2.9 1.5-1.1 0-2.1-.4-2.9-1.1-.1.4-.3.8-.4 1.1 1 .3 2 .5 3.1.5 2.5 0 4.6-.9 6.3-2.8 1.7-1.9 2.5-4.2 2.5-7s-.9-5.2-2.6-7.1c-1.6-1.8-3.8-2.7-6.4-2.7z" fill="#757575" data-color="1"></path>
        <path d="M167.9 102.5c-.8-.8-2.7-1.8-5.7-2.9-1.9-.7-2.9-1.8-2.9-3.3 0-.9.3-1.7.9-2.3.6-.6 1.4-.9 2.4-.9s1.9.3 2.7 1c.8.6 1.3 1.5 1.7 2.5.3.9.5 1.3.6 1.3.2 0 .3-.1.3-.3v-.1c-.2-1.5-.2-2.6-.2-3.3v-2.1c0-.2-.1-.3-.3-.3-.2 0-.3.1-.4.4-.1.6-.5.9-1.1.9-.2 0-.5 0-.8-.1-1.1-.3-2-.5-2.6-.5-1.6 0-2.9.5-4 1.6s-1.6 2.4-1.6 4c0 2.4 1.6 4.2 4.8 5.4 1.6.6 2.6 1 2.9 1.1.3.2.7.4 1.1.8.7.7 1.1 1.5 1.1 2.7 0 1-.3 1.8-.9 2.4-.6.6-1.5.9-2.5.9-1.9 0-3.5-.7-4.6-2.3-.6-.7-.9-1.8-1.1-3.1 0-.3-.2-.5-.4-.5s-.3.2-.3.5v5.7c0 .2.1.3.3.3.2 0 .4-.2.5-.5.2-.5.5-.8.9-.8.3 0 .6.1 1 .3 1.4.7 2.6 1 3.5 1 1.7 0 3.1-.6 4.3-1.7 1.2-1.2 1.8-2.6 1.8-4.2.1-1.4-.4-2.6-1.4-3.6z" fill="#757575" data-color="1"></path>
    </g>
</svg>