<svg preserveAspectRatio="xMidYMid meet" data-bbox="65.7 67.9 73.3 63" viewBox="65.7 67.9 73.3 63" height="200" width="200" xmlns="http://www.w3.org/2000/svg" data-type="color" role="presentation" aria-hidden="true" aria-label=""><defs><style>#comp-kkqs53a8 svg [data-color="1"] {fill: #757575;}</style></defs>
    <g>
        <path d="M118.6 88.7l-4.8 5.8v10.2h-8V67.9h8v17.5h.3l5.2-7.1 8.3-10.4h9.1L124.3 83l13.5 21.7h-9.4l-9.8-16z" fill="#000001" data-color="1"></path>
        <path d="M75.1 104.7h-9.4L79.2 83 66.8 67.9h9.1l8.3 10.4 5.2 7.1h.3V67.9h8v36.8h-8V94.5l-4.8-5.8-9.8 16z" fill="#000001" data-color="1"></path>
        <path d="M72.5 122.2l-2.5 3v5.4h-4.2v-19.3H70v9.2h.2l2.7-3.7 4.3-5.4h4.7l-6.5 7.9 7.1 11.3h-4.9l-5.1-8.4z" fill="#000001" data-color="1"></path>
        <path d="M86 130.6v-19.3h13.1v3.7h-8.9v3.9h7.6v3.7h-7.6v4.2h8.9v3.7H86z" fill="#000001" data-color="1"></path>
        <path d="M108.6 121.5l-1.9-3.9h-.1v13h-3.9v-19.3h4.6l5.3 9.1 1.9 3.9h.1v-13h3.9v19.3h-4.6l-5.3-9.1z" fill="#000001" data-color="1"></path>
        <path d="M130.5 130.9c-1.3 0-2.4-.2-3.5-.6-1-.4-1.9-1.1-2.7-1.9-.7-.8-1.3-1.9-1.7-3.1-.4-1.2-.6-2.7-.6-4.3 0-1.6.2-3.1.6-4.3.4-1.2 1-2.3 1.7-3.1.7-.8 1.6-1.5 2.7-1.9 1-.4 2.2-.6 3.5-.6 1.3 0 2.4.2 3.5.6 1 .4 1.9 1.1 2.7 1.9s1.3 1.9 1.7 3.1c.4 1.2.6 2.7.6 4.3 0 1.6-.2 3.1-.6 4.3-.4 1.2-1 2.3-1.7 3.1-.7.8-1.6 1.5-2.7 1.9-1.1.4-2.3.6-3.5.6zm0-3.7c1.3 0 2.3-.4 3-1.2s1.1-2 1.1-3.6v-2.9c0-1.5-.4-2.7-1.1-3.6-.7-.8-1.7-1.2-3-1.2s-2.3.4-3 1.2c-.7.8-1.1 2-1.1 3.6v2.9c0 1.5.4 2.7 1.1 3.6.7.8 1.7 1.2 3 1.2z" fill="#000001" data-color="1"></path>
    </g>
</svg>